<svg xmlns="http://www.w3.org/2000/svg" xmlns:xlink="http://www.w3.org/1999/xlink" version="1.1" x="0px" y="0px" viewBox="0 0 64 64" enable-background="new 0 0 64 64" xml:space="preserve" preserveAspectRatio="none" width="100%" height="100%" class="" fill="rgba(255, 255, 255, 1)"><g><path d="M45.135,31.662c-1.324,0-2.045,1.564-2.045,3.543c-0.025,1.998,0.746,3.518,2.045,3.518c1.398,0,2.025-1.498,2.025-3.568   C47.16,33.252,46.605,31.662,45.135,31.662z"/><path d="M63.93,25.344c0.023,0,0.047,0.008,0.07,0.008v-2.006c0-6.064-4.963-11.027-11.027-11.027H11.026   C4.962,12.318,0,17.281,0,23.346v2.006c0.023,0,0.047-0.008,0.07-0.008c3.521,0,6.371,2.98,6.371,6.656s-2.851,6.654-6.371,6.654   c-0.023,0-0.047-0.008-0.07-0.008v2.008c0,6.064,4.962,11.027,11.026,11.027h41.946C59.037,51.682,64,46.719,64,40.654v-2.008   c-0.023,0-0.047,0.008-0.07,0.008c-3.521,0-6.371-2.979-6.371-6.654S60.408,25.344,63.93,25.344z M22.874,50.402h-1.838v-4.168   h1.838V50.402z M22.874,43.877h-1.838v-4.172h1.838V43.877z M22.874,37.348h-1.838V33.18h1.838V37.348z M22.874,30.822h-1.838   V26.65h1.838V30.822z M22.874,24.293h-1.838v-4.168h1.838V24.293z M22.874,17.768h-1.838v-4.172h1.838V17.768z M31.213,28.797   c0-3.133,1.711-4.893,3.781-4.893c2.191,0,3.639,1.688,3.639,4.674c0,3.303-1.736,4.939-3.758,4.939   C32.924,33.518,31.237,31.953,31.213,28.797z M34.729,40.094l9.203-16.189h1.35l-9.203,16.189H34.729z M45.088,39.996   c-1.951,0-3.637-1.564-3.66-4.695c0-3.158,1.709-4.914,3.781-4.914c2.191,0,3.613,1.684,3.613,4.67   C48.822,38.359,47.088,39.996,45.088,39.996z"/><path d="M36.945,28.676c0-1.902-0.555-3.492-2.021-3.492c-1.326,0-2.025,1.564-2.025,3.543c-0.049,1.998,0.699,3.514,2.025,3.514   C36.32,32.24,36.945,30.746,36.945,28.676z"/></g></svg>